<?xml version="1.0" encoding="UTF-8" standalone="no"?><!DOCTYPE svg PUBLIC "-//W3C//DTD SVG 1.1//EN" "http://www.w3.org/Graphics/SVG/1.1/DTD/svg11.dtd"><svg width="100%" height="100%" viewBox="0 0 2250 2250" version="1.1" xmlns="http://www.w3.org/2000/svg" xmlns:xlink="http://www.w3.org/1999/xlink" xml:space="preserve" xmlns:serif="http://www.serif.com/" style="fill-rule:evenodd;clip-rule:evenodd;stroke-linecap:round;stroke-linejoin:round;stroke-miterlimit:1.5;"><path id="Background" d="M1294.04,206.523c-0,-11.051 -4.39,-21.649 -12.204,-29.463c-7.814,-7.814 -18.412,-12.204 -29.463,-12.204c-55.374,0 -152.652,0 -208.026,0c-11.051,0 -21.649,4.39 -29.463,12.204c-7.814,7.814 -12.204,18.412 -12.204,29.463c0,79.475 0,251.871 0,331.347c0,23.012 -18.654,41.666 -41.666,41.666c-36.974,0 -90.71,0 -127.683,0c-23.012,0 -41.667,18.655 -41.667,41.667c0,79.651 0,252.667 0,332.317c0,23.012 -18.655,41.667 -41.667,41.667c-36.055,-0 -87.928,-0 -123.983,-0c-23.012,-0 -41.667,18.655 -41.667,41.666c0,36.561 0,89.456 0,126.017c0,11.05 -4.39,21.648 -12.204,29.462c-7.814,7.814 -18.412,12.204 -29.463,12.204c-35.293,0 -85.641,0 -120.935,0c-23.011,0 -41.666,18.655 -41.666,41.667c-0,94.834 -0,325.897 -0,420.732c-0,23.011 18.655,41.666 41.666,41.666c34.783,0 84.12,0 118.903,0c23.012,0 41.667,18.655 41.667,41.667c-0,35.802 -0,87.165 -0,122.967c-0,23.012 18.654,41.667 41.666,41.667c37.064,0 90.985,0 128.049,0c23.012,0 41.667,18.655 41.667,41.667l-0,121.951c-0,23.012 18.654,41.667 41.666,41.667c125.574,-0 499.426,-0 625,-0c11.051,-0 21.649,-4.39 29.463,-12.204c7.814,-7.814 12.204,-18.412 12.204,-29.463l-0,-120.07c-0,-23.012 18.655,-41.667 41.667,-41.667c35.871,0 87.387,0 123.355,0c11.108,0 21.756,-4.435 29.579,-12.321c7.824,-7.885 12.174,-18.569 12.086,-29.676c-0.29,-36.483 -0.707,-89.052 -0.997,-125.535c-0.089,-11.108 4.262,-21.791 12.085,-29.676c7.824,-7.886 18.472,-12.322 29.58,-12.322l126.129,0c23.012,0 41.667,-18.654 41.667,-41.666l-0,-417.506c-0,-11.051 -4.39,-21.649 -12.204,-29.463c-7.814,-7.814 -18.412,-12.204 -29.463,-12.204l-125.499,0c-11.05,0 -21.649,-4.389 -29.463,-12.203c-7.814,-7.815 -12.203,-18.413 -12.203,-29.463c-0,-36.045 -0,-87.894 -0,-123.938c-0,-23.012 -18.655,-41.667 -41.667,-41.667l-123.496,-0c-23.012,-0 -41.667,-18.655 -41.667,-41.667c0,-80.111 0,-254.767 0,-334.878c0,-23.012 -18.654,-41.666 -41.666,-41.666c-36.097,-0 -88.05,-0 -124.147,-0c-11.05,-0 -21.648,-4.39 -29.462,-12.204c-7.814,-7.814 -12.204,-18.412 -12.204,-29.463c-0,-79.727 -0,-253.015 -0,-332.742Z" style="fill:#ebebeb;"/><g id="Pixels"><path id="Ninth-Row" serif:id="Ninth Row" d="M1198.42,207.317c13.813,0 27.061,5.487 36.828,15.255c9.768,9.767 15.255,23.015 15.255,36.828l0,104.167c0,13.813 -5.487,27.061 -15.255,36.829c-9.767,9.767 -23.015,15.254 -36.828,15.254l-104.167,0c-13.813,0 -27.061,-5.487 -36.828,-15.254c-9.768,-9.768 -15.255,-23.016 -15.255,-36.829l-0,-104.167c-0,-13.813 5.487,-27.061 15.255,-36.828c9.767,-9.768 23.015,-15.255 36.828,-15.255l104.167,0Z" style="fill:#808080;stroke:#ebebeb;stroke-width:20.83px;"/><g id="Forth-Row" serif:id="Forth Row"><path d="M570.884,1252.16c13.813,-0 27.061,5.487 36.829,15.254c9.767,9.768 15.254,23.016 15.254,36.829l0,104.167c0,13.813 -5.487,27.061 -15.254,36.828c-9.768,9.768 -23.016,15.255 -36.829,15.255l-104.167,-0c-13.813,-0 -27.06,-5.487 -36.828,-15.255c-9.768,-9.767 -15.255,-23.015 -15.255,-36.828l0,-104.167c0,-13.813 5.487,-27.061 15.255,-36.829c9.768,-9.767 23.015,-15.254 36.828,-15.254l104.167,-0Z" style="fill:#808080;stroke:#ebebeb;stroke-width:20.83px;"/><path d="M1825.97,1252.16c13.814,-0 27.061,5.487 36.829,15.254c9.767,9.768 15.255,23.016 15.255,36.829l-0,104.167c-0,13.813 -5.488,27.061 -15.255,36.828c-9.768,9.768 -23.015,15.255 -36.829,15.255l-104.166,-0c-13.814,-0 -27.061,-5.487 -36.829,-15.255c-9.767,-9.767 -15.255,-23.015 -15.255,-36.828l0,-104.167c0,-13.813 5.488,-27.061 15.255,-36.829c9.768,-9.767 23.015,-15.254 36.829,-15.254l104.166,-0Z" style="fill:#808080;stroke:#ebebeb;stroke-width:20.83px;"/><path d="M1198.42,1252.16c13.813,-0 27.061,5.487 36.828,15.254c9.768,9.768 15.255,23.016 15.255,36.829l0,104.167c0,13.813 -5.487,27.061 -15.255,36.828c-9.767,9.768 -23.015,15.255 -36.828,15.255l-104.167,-0c-13.813,-0 -27.061,-5.487 -36.828,-15.255c-9.768,-9.767 -15.255,-23.015 -15.255,-36.828l-0,-104.167c-0,-13.813 5.487,-27.061 15.255,-36.829c9.767,-9.767 23.015,-15.254 36.828,-15.254l104.167,-0Z" style="fill:#808080;stroke:#ebebeb;stroke-width:20.83px;"/><path d="M989.245,1252.16c13.813,-0 27.061,5.487 36.828,15.254c9.768,9.768 15.255,23.016 15.255,36.829l-0,104.167c-0,13.813 -5.487,27.061 -15.255,36.828c-9.767,9.768 -23.015,15.255 -36.828,15.255l-104.167,-0c-13.813,-0 -27.061,-5.487 -36.829,-15.255c-9.767,-9.767 -15.254,-23.015 -15.254,-36.828l-0,-104.167c-0,-13.813 5.487,-27.061 15.254,-36.829c9.768,-9.767 23.016,-15.254 36.829,-15.254l104.167,-0Z" style="fill:#808080;stroke:#ebebeb;stroke-width:20.83px;"/><path d="M1407.61,1252.16c13.813,-0 27.061,5.487 36.828,15.254c9.768,9.768 15.255,23.016 15.255,36.829l0,104.167c0,13.813 -5.487,27.061 -15.255,36.828c-9.767,9.768 -23.015,15.255 -36.828,15.255l-104.167,-0c-13.813,-0 -27.061,-5.487 -36.828,-15.255c-9.768,-9.767 -15.255,-23.015 -15.255,-36.828l0,-104.167c0,-13.813 5.487,-27.061 15.255,-36.829c9.767,-9.767 23.015,-15.254 36.828,-15.254l104.167,-0Z" style="fill:#808080;stroke:#ebebeb;stroke-width:20.83px;"/><path d="M1616.79,1252.16c13.814,-0 27.061,5.487 36.829,15.254c9.767,9.768 15.255,23.016 15.255,36.829l-0,104.167c-0,13.813 -5.488,27.061 -15.255,36.828c-9.768,9.768 -23.015,15.255 -36.829,15.255l-104.166,-0c-13.814,-0 -27.061,-5.487 -36.829,-15.255c-9.767,-9.767 -15.255,-23.015 -15.255,-36.828l0,-104.167c0,-13.813 5.488,-27.061 15.255,-36.829c9.768,-9.767 23.015,-15.254 36.829,-15.254l104.166,-0Z" style="fill:#808080;stroke:#ebebeb;stroke-width:20.83px;"/><path d="M780.064,1252.16c13.814,-0 27.061,5.487 36.829,15.254c9.767,9.768 15.255,23.016 15.255,36.829l-0,104.167c-0,13.813 -5.488,27.061 -15.255,36.828c-9.768,9.768 -23.015,15.255 -36.829,15.255l-104.166,-0c-13.814,-0 -27.061,-5.487 -36.829,-15.255c-9.767,-9.767 -15.255,-23.015 -15.255,-36.828l0,-104.167c0,-13.813 5.488,-27.061 15.255,-36.829c9.768,-9.767 23.015,-15.254 36.829,-15.254l104.166,-0Z" style="fill:#808080;stroke:#ebebeb;stroke-width:20.83px;"/></g><g id="Third-Row" serif:id="Third Row"><path d="M570.884,1461.13c13.813,0 27.061,5.487 36.829,15.255c9.767,9.767 15.254,23.015 15.254,36.828l0,104.167c0,13.813 -5.487,27.061 -15.254,36.829c-9.768,9.767 -23.016,15.254 -36.829,15.254l-104.167,0c-13.813,0 -27.06,-5.487 -36.828,-15.254c-9.768,-9.768 -15.255,-23.016 -15.255,-36.829l0,-104.167c0,-13.813 5.487,-27.061 15.255,-36.828c9.768,-9.768 23.015,-15.255 36.828,-15.255l104.167,0Z" style="fill:#808080;stroke:#ebebeb;stroke-width:20.83px;"/><path d="M1825.97,1461.13c13.814,0 27.061,5.487 36.829,15.255c9.767,9.767 15.255,23.015 15.255,36.828l-0,104.167c-0,13.813 -5.488,27.061 -15.255,36.829c-9.768,9.767 -23.015,15.254 -36.829,15.254l-104.166,0c-13.814,0 -27.061,-5.487 -36.829,-15.254c-9.767,-9.768 -15.255,-23.016 -15.255,-36.829l0,-104.167c0,-13.813 5.488,-27.061 15.255,-36.828c9.768,-9.768 23.015,-15.255 36.829,-15.255l104.166,0Z" style="fill:#808080;stroke:#ebebeb;stroke-width:20.83px;"/><path d="M1198.42,1461.13c13.813,0 27.061,5.487 36.828,15.255c9.768,9.767 15.255,23.015 15.255,36.828l0,104.167c0,13.813 -5.487,27.061 -15.255,36.829c-9.767,9.767 -23.015,15.254 -36.828,15.254l-104.167,0c-13.813,0 -27.061,-5.487 -36.828,-15.254c-9.768,-9.768 -15.255,-23.016 -15.255,-36.829l-0,-104.167c-0,-13.813 5.487,-27.061 15.255,-36.828c9.767,-9.768 23.015,-15.255 36.828,-15.255l104.167,0Z" style="fill:#808080;stroke:#ebebeb;stroke-width:20.83px;"/><path d="M989.245,1461.13c13.813,0 27.061,5.487 36.828,15.255c9.768,9.767 15.255,23.015 15.255,36.828l-0,104.167c-0,13.813 -5.487,27.061 -15.255,36.829c-9.767,9.767 -23.015,15.254 -36.828,15.254l-104.167,0c-13.813,0 -27.061,-5.487 -36.829,-15.254c-9.767,-9.768 -15.254,-23.016 -15.254,-36.829l-0,-104.167c-0,-13.813 5.487,-27.061 15.254,-36.828c9.768,-9.768 23.016,-15.255 36.829,-15.255l104.167,0Z" style="fill:#808080;stroke:#ebebeb;stroke-width:20.83px;"/><path d="M1407.61,1461.13c13.813,0 27.061,5.487 36.828,15.255c9.768,9.767 15.255,23.015 15.255,36.828l0,104.167c0,13.813 -5.487,27.061 -15.255,36.829c-9.767,9.767 -23.015,15.254 -36.828,15.254l-104.167,0c-13.813,0 -27.061,-5.487 -36.828,-15.254c-9.768,-9.768 -15.255,-23.016 -15.255,-36.829l0,-104.167c0,-13.813 5.487,-27.061 15.255,-36.828c9.767,-9.768 23.015,-15.255 36.828,-15.255l104.167,0Z" style="fill:#808080;stroke:#ebebeb;stroke-width:20.83px;"/><path d="M780.064,1461.13c13.814,0 27.061,5.487 36.829,15.255c9.767,9.767 15.255,23.015 15.255,36.828l-0,104.167c-0,13.813 -5.488,27.061 -15.255,36.829c-9.768,9.767 -23.015,15.254 -36.829,15.254l-104.166,0c-13.814,0 -27.061,-5.487 -36.829,-15.254c-9.767,-9.768 -15.255,-23.016 -15.255,-36.829l0,-104.167c0,-13.813 5.488,-27.061 15.255,-36.828c9.768,-9.768 23.015,-15.255 36.829,-15.255l104.166,0Z" style="fill:#808080;stroke:#ebebeb;stroke-width:20.83px;"/><path d="M1616.79,1461.13c13.814,0 27.061,5.487 36.829,15.255c9.767,9.767 15.255,23.015 15.255,36.828l-0,104.167c-0,13.813 -5.488,27.061 -15.255,36.829c-9.768,9.767 -23.015,15.254 -36.829,15.254l-104.166,0c-13.814,0 -27.061,-5.487 -36.829,-15.254c-9.767,-9.768 -15.255,-23.016 -15.255,-36.829l0,-104.167c0,-13.813 5.488,-27.061 15.255,-36.828c9.768,-9.768 23.015,-15.255 36.829,-15.255l104.166,0Z" style="fill:#808080;stroke:#ebebeb;stroke-width:20.83px;"/></g><g id="First-Row" serif:id="First Row"><path d="M1406.25,1880.08c13.813,0 27.061,5.488 36.828,15.255c9.768,9.768 15.255,23.015 15.255,36.829l0,104.166c0,13.814 -5.487,27.061 -15.255,36.829c-9.767,9.767 -23.015,15.255 -36.828,15.255l-104.167,-0c-13.813,-0 -27.061,-5.488 -36.828,-15.255c-9.768,-9.768 -15.255,-23.015 -15.255,-36.829l0,-104.166c-0,-13.814 5.487,-27.061 15.255,-36.829c9.767,-9.767 23.015,-15.255 36.828,-15.255l104.167,0Z" style="fill:#808080;stroke:#ebebeb;stroke-width:20.83px;"/><path d="M1198.42,1879.07c13.813,0 27.061,5.487 36.828,15.255c9.768,9.767 15.255,23.015 15.255,36.828l0,104.167c0,13.813 -5.487,27.061 -15.255,36.829c-9.767,9.767 -23.015,15.254 -36.828,15.254l-104.167,0c-13.813,0 -27.061,-5.487 -36.828,-15.254c-9.768,-9.768 -15.255,-23.016 -15.255,-36.829l-0,-104.167c-0,-13.813 5.487,-27.061 15.255,-36.828c9.767,-9.768 23.015,-15.255 36.828,-15.255l104.167,0Z" style="fill:#808080;stroke:#ebebeb;stroke-width:20.83px;"/><path d="M990.6,1880.08c13.813,0 27.061,5.488 36.828,15.255c9.768,9.768 15.255,23.015 15.255,36.829l-0,104.166c-0,13.814 -5.487,27.061 -15.255,36.829c-9.767,9.767 -23.015,15.255 -36.828,15.255l-104.167,-0c-13.813,-0 -27.061,-5.488 -36.829,-15.255c-9.767,-9.768 -15.254,-23.015 -15.254,-36.829l-0,-104.166c-0,-13.814 5.487,-27.061 15.254,-36.829c9.768,-9.767 23.016,-15.255 36.829,-15.255l104.167,0Z" style="fill:#808080;stroke:#ebebeb;stroke-width:20.83px;"/></g><g id="Second-Row" serif:id="Second Row"><path d="M1198.42,1670.1c13.813,-0 27.061,5.487 36.828,15.254c9.768,9.768 15.255,23.016 15.255,36.829l0,104.167c0,13.813 -5.487,27.061 -15.255,36.828c-9.767,9.768 -23.015,15.255 -36.828,15.255l-104.167,-0c-13.813,-0 -27.061,-5.487 -36.828,-15.255c-9.768,-9.767 -15.255,-23.015 -15.255,-36.828l-0,-104.167c-0,-13.813 5.487,-27.061 15.255,-36.829c9.767,-9.767 23.015,-15.254 36.828,-15.254l104.167,-0Z" style="fill:#808080;stroke:#ebebeb;stroke-width:20.83px;"/><path d="M989.075,1670.1c13.814,-0 27.061,5.487 36.829,15.254c9.767,9.768 15.255,23.016 15.255,36.829l-0,104.167c-0,13.813 -5.488,27.061 -15.255,36.828c-9.768,9.768 -23.015,15.255 -36.829,15.255l-104.166,-0c-13.814,-0 -27.061,-5.487 -36.829,-15.255c-9.767,-9.767 -15.255,-23.015 -15.255,-36.828l0,-104.167c0,-13.813 5.488,-27.061 15.255,-36.829c9.768,-9.767 23.015,-15.254 36.829,-15.254l104.166,-0Z" style="fill:#808080;stroke:#ebebeb;stroke-width:20.83px;"/><path d="M779.726,1670.1c13.813,-0 27.061,5.487 36.828,15.254c9.768,9.768 15.255,23.016 15.255,36.829l-0,104.167c-0,13.813 -5.487,27.061 -15.255,36.828c-9.767,9.768 -23.015,15.255 -36.828,15.255l-104.167,-0c-13.813,-0 -27.061,-5.487 -36.829,-15.255c-9.767,-9.767 -15.254,-23.015 -15.254,-36.828l-0,-104.167c-0,-13.813 5.487,-27.061 15.254,-36.829c9.768,-9.767 23.016,-15.254 36.829,-15.254l104.167,-0Z" style="fill:#808080;stroke:#ebebeb;stroke-width:20.83px;"/><path d="M1407.77,1670.1c13.814,-0 27.061,5.487 36.829,15.254c9.767,9.768 15.255,23.016 15.255,36.829l-0,104.167c-0,13.813 -5.488,27.061 -15.255,36.828c-9.768,9.768 -23.015,15.255 -36.829,15.255l-104.166,-0c-13.814,-0 -27.061,-5.487 -36.829,-15.255c-9.767,-9.767 -15.255,-23.015 -15.255,-36.828l0,-104.167c0,-13.813 5.488,-27.061 15.255,-36.829c9.768,-9.767 23.015,-15.254 36.829,-15.254l104.166,-0Z" style="fill:#808080;stroke:#ebebeb;stroke-width:20.83px;"/><path d="M1617.12,1670.1c13.813,-0 27.061,5.487 36.828,15.254c9.768,9.768 15.255,23.016 15.255,36.829l0,104.167c0,13.813 -5.487,27.061 -15.255,36.828c-9.767,9.768 -23.015,15.255 -36.828,15.255l-104.167,-0c-13.813,-0 -27.061,-5.487 -36.828,-15.255c-9.768,-9.767 -15.255,-23.015 -15.255,-36.828l-0,-104.167c-0,-13.813 5.487,-27.061 15.255,-36.829c9.767,-9.767 23.015,-15.254 36.828,-15.254l104.167,-0Z" style="fill:#808080;stroke:#ebebeb;stroke-width:20.83px;"/></g><g id="Sixth-Row" serif:id="Sixth Row"><path d="M1406.76,834.223c13.813,-0 27.061,5.487 36.829,15.254c9.767,9.768 15.254,23.016 15.254,36.829l0,104.167c0,13.813 -5.487,27.061 -15.254,36.828c-9.768,9.768 -23.016,15.255 -36.829,15.255l-104.167,-0c-13.813,-0 -27.06,-5.487 -36.828,-15.255c-9.768,-9.767 -15.255,-23.015 -15.255,-36.828l0,-104.167c0,-13.813 5.487,-27.061 15.255,-36.829c9.768,-9.767 23.015,-15.254 36.828,-15.254l104.167,-0Z" style="fill:#808080;stroke:#ebebeb;stroke-width:20.83px;"/><path d="M990.091,834.223c13.814,-0 27.061,5.487 36.829,15.254c9.767,9.768 15.255,23.016 15.255,36.829l-0,104.167c-0,13.813 -5.488,27.061 -15.255,36.828c-9.768,9.768 -23.015,15.255 -36.829,15.255l-104.166,-0c-13.814,-0 -27.061,-5.487 -36.829,-15.255c-9.767,-9.767 -15.255,-23.015 -15.255,-36.828l0,-104.167c0,-13.813 5.488,-27.061 15.255,-36.829c9.768,-9.767 23.015,-15.254 36.829,-15.254l104.166,-0Z" style="fill:#808080;stroke:#ebebeb;stroke-width:20.83px;"/><path d="M1198.42,834.223c13.813,-0 27.061,5.487 36.828,15.254c9.768,9.768 15.255,23.016 15.255,36.829l0,104.167c0,13.813 -5.487,27.061 -15.255,36.828c-9.767,9.768 -23.015,15.255 -36.828,15.255l-104.167,-0c-13.813,-0 -27.061,-5.487 -36.828,-15.255c-9.768,-9.767 -15.255,-23.015 -15.255,-36.828l-0,-104.167c-0,-13.813 5.487,-27.061 15.255,-36.829c9.767,-9.767 23.015,-15.254 36.828,-15.254l104.167,-0Z" style="fill:#808080;stroke:#ebebeb;stroke-width:20.83px;"/></g><g id="Fifth-Row" serif:id="Fifth Row"><path d="M1617.12,1043.19c13.813,0 27.061,5.487 36.828,15.255c9.768,9.767 15.255,23.015 15.255,36.828l0,104.167c0,13.813 -5.487,27.061 -15.255,36.829c-9.767,9.767 -23.015,15.254 -36.828,15.254l-104.167,0c-13.813,0 -27.061,-5.487 -36.828,-15.254c-9.768,-9.768 -15.255,-23.016 -15.255,-36.829l-0,-104.167c-0,-13.813 5.487,-27.061 15.255,-36.828c9.767,-9.768 23.015,-15.255 36.828,-15.255l104.167,0Z" style="fill:#808080;stroke:#ebebeb;stroke-width:20.83px;"/><path d="M989.075,1043.19c13.814,0 27.061,5.487 36.829,15.255c9.767,9.767 15.255,23.015 15.255,36.828l-0,104.167c-0,13.813 -5.488,27.061 -15.255,36.829c-9.768,9.767 -23.015,15.254 -36.829,15.254l-104.166,0c-13.814,0 -27.061,-5.487 -36.829,-15.254c-9.767,-9.768 -15.255,-23.016 -15.255,-36.829l0,-104.167c0,-13.813 5.488,-27.061 15.255,-36.828c9.768,-9.768 23.015,-15.255 36.829,-15.255l104.166,0Z" style="fill:#808080;stroke:#ebebeb;stroke-width:20.83px;"/><path d="M1198.42,1043.19c13.813,0 27.061,5.487 36.828,15.255c9.768,9.767 15.255,23.015 15.255,36.828l0,104.167c0,13.813 -5.487,27.061 -15.255,36.829c-9.767,9.767 -23.015,15.254 -36.828,15.254l-104.167,0c-13.813,0 -27.061,-5.487 -36.828,-15.254c-9.768,-9.768 -15.255,-23.016 -15.255,-36.829l-0,-104.167c-0,-13.813 5.487,-27.061 15.255,-36.828c9.767,-9.768 23.015,-15.255 36.828,-15.255l104.167,0Z" style="fill:#808080;stroke:#ebebeb;stroke-width:20.83px;"/><path d="M779.726,1043.19c13.813,0 27.061,5.487 36.828,15.255c9.768,9.767 15.255,23.015 15.255,36.828l-0,104.167c-0,13.813 -5.487,27.061 -15.255,36.829c-9.767,9.767 -23.015,15.254 -36.828,15.254l-104.167,0c-13.813,0 -27.061,-5.487 -36.829,-15.254c-9.767,-9.768 -15.254,-23.016 -15.254,-36.829l-0,-104.167c-0,-13.813 5.487,-27.061 15.254,-36.828c9.768,-9.768 23.016,-15.255 36.829,-15.255l104.167,0Z" style="fill:#808080;stroke:#ebebeb;stroke-width:20.83px;"/><path d="M1407.77,1043.19c13.814,0 27.061,5.487 36.829,15.255c9.767,9.767 15.255,23.015 15.255,36.828l-0,104.167c-0,13.813 -5.488,27.061 -15.255,36.829c-9.768,9.767 -23.015,15.254 -36.829,15.254l-104.166,0c-13.814,0 -27.061,-5.487 -36.829,-15.254c-9.767,-9.768 -15.255,-23.016 -15.255,-36.829l0,-104.167c0,-13.813 5.488,-27.061 15.255,-36.828c9.768,-9.768 23.015,-15.255 36.829,-15.255l104.166,0Z" style="fill:#808080;stroke:#ebebeb;stroke-width:20.83px;"/></g><g id="Seventh-Row" serif:id="Seventh Row"><path d="M988.567,625.254c13.813,0 27.061,5.487 36.829,15.255c9.767,9.767 15.254,23.015 15.254,36.828l0,104.167c0,13.813 -5.487,27.061 -15.254,36.829c-9.768,9.767 -23.016,15.254 -36.829,15.254l-104.167,0c-13.813,0 -27.061,-5.487 -36.828,-15.254c-9.768,-9.768 -15.255,-23.016 -15.255,-36.829l0,-104.167c0,-13.813 5.487,-27.061 15.255,-36.828c9.767,-9.768 23.015,-15.255 36.828,-15.255l104.167,0Z" style="fill:#808080;stroke:#ebebeb;stroke-width:20.83px;"/><path d="M1198.42,625.254c13.813,0 27.061,5.487 36.828,15.255c9.768,9.767 15.255,23.015 15.255,36.828l0,104.167c0,13.813 -5.487,27.061 -15.255,36.829c-9.767,9.767 -23.015,15.254 -36.828,15.254l-104.167,0c-13.813,0 -27.061,-5.487 -36.828,-15.254c-9.768,-9.768 -15.255,-23.016 -15.255,-36.829l-0,-104.167c-0,-13.813 5.487,-27.061 15.255,-36.828c9.767,-9.768 23.015,-15.255 36.828,-15.255l104.167,0Z" style="fill:#808080;stroke:#ebebeb;stroke-width:20.83px;"/><path d="M1408.28,625.254c13.813,0 27.06,5.487 36.828,15.255c9.768,9.767 15.255,23.015 15.255,36.828l-0,104.167c-0,13.813 -5.487,27.061 -15.255,36.829c-9.768,9.767 -23.015,15.254 -36.828,15.254l-104.167,0c-13.813,0 -27.061,-5.487 -36.829,-15.254c-9.767,-9.768 -15.254,-23.016 -15.254,-36.829l-0,-104.167c-0,-13.813 5.487,-27.061 15.254,-36.828c9.768,-9.768 23.016,-15.255 36.829,-15.255l104.167,0Z" style="fill:#808080;stroke:#ebebeb;stroke-width:20.83px;"/></g><path id="Eight-Row" serif:id="Eight Row" d="M1198.42,416.286c13.813,-0 27.061,5.487 36.828,15.254c9.768,9.768 15.255,23.016 15.255,36.829l0,104.167c0,13.813 -5.487,27.061 -15.255,36.828c-9.767,9.768 -23.015,15.255 -36.828,15.255l-104.167,-0c-13.813,-0 -27.061,-5.487 -36.828,-15.255c-9.768,-9.767 -15.255,-23.015 -15.255,-36.828l-0,-104.167c-0,-13.813 5.487,-27.061 15.255,-36.829c9.767,-9.767 23.015,-15.254 36.828,-15.254l104.167,-0Z" style="fill:#808080;stroke:#ebebeb;stroke-width:20.83px;"/></g></svg>